<svg xmlns="http://www.w3.org/2000/svg" version="1.1" xmlns:xlink="http://www.w3.org/1999/xlink" xmlns:svgjs="http://svgjs.dev/svgjs" width="2000" height="277" viewBox="0 0 2000 277"><g transform="matrix(1,0,0,1,-1.2121212121212466,1.0765261285715155)"><svg viewBox="0 0 396 55" data-background-color="#040046" preserveAspectRatio="xMidYMid meet" height="277" width="2000" xmlns="http://www.w3.org/2000/svg" xmlns:xlink="http://www.w3.org/1999/xlink"><g id="tight-bounds" transform="matrix(1,0,0,1,0.2400000000000091,-0.21375067534813752)"><svg viewBox="0 0 395.52 55.427501350696275" height="55.427501350696275" width="395.52"><g><svg viewBox="0 0 459.1581380187982 64.34564197820622" height="55.427501350696275" width="395.52"><g transform="matrix(1,0,0,1,0,1.1329551047778779)"><svg viewBox="0 0 395.52 62.07973176865046" height="62.07973176865046" width="395.52"><g id="textblocktransform"><svg viewBox="0 0 395.52 62.07973176865046" height="62.07973176865046" width="395.52" id="textblock"><g><svg viewBox="0 0 395.52 62.07973176865046" height="62.07973176865046" width="395.52"><g transform="matrix(1,0,0,1,0,0)"><svg width="395.52" viewBox="1.7 -37 238.58 37.45" height="62.07973176865046" data-palette-color="url(#88f3ddf6-488d-4b9b-bf34-f7f66915cc2a)"></svg></g></svg></g></svg></g></svg></g><g transform="matrix(1,0,0,1,410.1755347570159,0)"><svg viewBox="0 0 48.98260326178225 64.34564197820622" height="64.34564197820622" width="48.98260326178225"><g><svg xmlns="http://www.w3.org/2000/svg" xmlns:xlink="http://www.w3.org/1999/xlink" version="1.1" x="0" y="0" viewBox="14.5 3.3 71.1 93.39999999999999" enable-background="new 0 0 100 100" xml:space="preserve" height="64.34564197820622" width="48.98260326178225" class="icon-icon-0" data-fill-palette-color="accent" id="icon-0"></svg></g></svg></g></svg></g><defs></defs><mask id="981b07b0-7f70-4bba-945a-a53c8d11b2b7"><g id="SvgjsG1408"><svg viewBox="0 0 395.52 55.427501350696275" height="55.427501350696275" width="395.52"><g><svg viewBox="0 0 459.1581380187982 64.34564197820622" height="55.427501350696275" width="395.52"><g transform="matrix(1,0,0,1,0,1.1329551047778779)"><svg viewBox="0 0 395.52 62.07973176865046" height="62.07973176865046" width="395.52"><g id="SvgjsG1407"><svg viewBox="0 0 395.52 62.07973176865046" height="62.07973176865046" width="395.52" id="SvgjsSvg1406"><g><svg viewBox="0 0 395.52 62.07973176865046" height="62.07973176865046" width="395.52"><g transform="matrix(1,0,0,1,0,0)"><svg width="395.52" viewBox="1.7 -37 238.58 37.45" height="62.07973176865046" data-palette-color="url(#88f3ddf6-488d-4b9b-bf34-f7f66915cc2a)"><path d="M1.7-34.85L25.3-34.85 25.3-31.15 15.8-31.15 15.8 0 11.25 0 11.25-31.15 1.7-31.15 1.7-34.85ZM55.9-14.75Q55.9-13.45 55.75-12L55.75-12 33.85-12Q34.1-7.95 36.62-5.68 39.15-3.4 42.75-3.4L42.75-3.4Q45.7-3.4 47.67-4.78 49.65-6.15 50.45-8.45L50.45-8.45 55.35-8.45Q54.25-4.5 50.95-2.02 47.65 0.45 42.75 0.45L42.75 0.45Q38.85 0.45 35.77-1.3 32.7-3.05 30.95-6.28 29.2-9.5 29.2-13.75L29.2-13.75Q29.2-18 30.9-21.2 32.6-24.4 35.67-26.13 38.75-27.85 42.75-27.85L42.75-27.85Q46.65-27.85 49.65-26.15 52.65-24.45 54.27-21.48 55.9-18.5 55.9-14.75L55.9-14.75ZM51.2-15.7Q51.2-18.3 50.05-20.18 48.9-22.05 46.92-23.03 44.95-24 42.55-24L42.55-24Q39.1-24 36.67-21.8 34.25-19.6 33.9-15.7L33.9-15.7 51.2-15.7ZM60.2-13.75Q60.2-18 61.9-21.18 63.59-24.35 66.62-26.1 69.65-27.85 73.55-27.85L73.55-27.85Q78.59-27.85 81.87-25.4 85.15-22.95 86.2-18.6L86.2-18.6 81.3-18.6Q80.59-21.1 78.57-22.55 76.55-24 73.55-24L73.55-24Q69.65-24 67.25-21.33 64.84-18.65 64.84-13.75L64.84-13.75Q64.84-8.8 67.25-6.1 69.65-3.4 73.55-3.4L73.55-3.4Q76.55-3.4 78.55-4.8 80.55-6.2 81.3-8.8L81.3-8.8 86.2-8.8Q85.09-4.6 81.8-2.08 78.5 0.45 73.55 0.45L73.55 0.45Q69.65 0.45 66.62-1.3 63.59-3.05 61.9-6.25 60.2-9.45 60.2-13.75L60.2-13.75ZM105.84-27.9Q108.94-27.9 111.44-26.58 113.94-25.25 115.37-22.6 116.79-19.95 116.79-16.15L116.79-16.15 116.79 0 112.29 0 112.29-15.5Q112.29-19.6 110.24-21.78 108.19-23.95 104.64-23.95L104.64-23.95Q101.04-23.95 98.92-21.7 96.79-19.45 96.79-15.15L96.79-15.15 96.79 0 92.24 0 92.24-37 96.79-37 96.79-23.5Q98.14-25.6 100.52-26.75 102.89-27.9 105.84-27.9L105.84-27.9ZM122.09-34.85L145.69-34.85 145.69-31.15 136.19-31.15 136.19 0 131.64 0 131.64-31.15 122.09-31.15 122.09-34.85ZM171.04-27.4L175.59-27.4 175.59 0 171.04 0 171.04-4.05Q169.74-1.95 167.41-0.78 165.09 0.4 162.29 0.4L162.29 0.4Q159.09 0.4 156.54-0.93 153.99-2.25 152.51-4.9 151.04-7.55 151.04-11.35L151.04-11.35 151.04-27.4 155.54-27.4 155.54-11.95Q155.54-7.9 157.59-5.73 159.64-3.55 163.19-3.55L163.19-3.55Q166.84-3.55 168.94-5.8 171.04-8.05 171.04-12.35L171.04-12.35 171.04-27.4ZM196.64-27.9Q201.64-27.9 204.74-24.88 207.84-21.85 207.84-16.15L207.84-16.15 207.84 0 203.34 0 203.34-15.5Q203.34-19.6 201.29-21.78 199.24-23.95 195.69-23.95L195.69-23.95Q192.09-23.95 189.96-21.7 187.84-19.45 187.84-15.15L187.84-15.15 187.84 0 183.29 0 183.29-27.4 187.84-27.4 187.84-23.5Q189.19-25.6 191.51-26.75 193.84-27.9 196.64-27.9L196.64-27.9ZM240.28-14.75Q240.28-13.45 240.13-12L240.13-12 218.23-12Q218.48-7.95 221.01-5.68 223.53-3.4 227.13-3.4L227.13-3.4Q230.08-3.4 232.06-4.78 234.03-6.15 234.83-8.45L234.83-8.45 239.73-8.45Q238.63-4.5 235.33-2.02 232.03 0.45 227.13 0.45L227.13 0.45Q223.23 0.45 220.16-1.3 217.08-3.05 215.33-6.28 213.58-9.5 213.58-13.75L213.58-13.75Q213.58-18 215.28-21.2 216.98-24.4 220.06-26.13 223.13-27.85 227.13-27.85L227.13-27.85Q231.03-27.85 234.03-26.15 237.03-24.45 238.66-21.48 240.28-18.5 240.28-14.75L240.28-14.75ZM235.58-15.7Q235.58-18.3 234.43-20.18 233.28-22.05 231.31-23.03 229.33-24 226.93-24L226.93-24Q223.48-24 221.06-21.8 218.63-19.6 218.28-15.7L218.28-15.7 235.58-15.7Z" opacity="1" transform="matrix(1,0,0,1,0,0)" fill="white" class="wordmark-text-0" id="SvgjsPath1405"></path></svg></g></svg></g></svg></g></svg></g><g transform="matrix(1,0,0,1,410.1755347570159,0)"><svg viewBox="0 0 48.98260326178225 64.34564197820622" height="64.34564197820622" width="48.98260326178225"><g><svg xmlns="http://www.w3.org/2000/svg" xmlns:xlink="http://www.w3.org/1999/xlink" version="1.1" x="0" y="0" viewBox="14.5 3.3 71.1 93.39999999999999" enable-background="new 0 0 100 100" xml:space="preserve" height="64.34564197820622" width="48.98260326178225" class="icon-icon-0" data-fill-palette-color="accent" id="SvgjsSvg1404"><path d="M52.1 84.4v8.1h12.2c1.2 0 2.1 1 2.1 2.1s-1 2.1-2.1 2.1H35.7c-1.2 0-2.1-1-2.1-2.1s1-2.1 2.1-2.1h12.2v-8.1H18.7c-2.3 0-4.2-1.9-4.2-4.2V39.9c0-2.3 1.9-4.2 4.2-4.2H33c1.2 0 2.1 1 2.1 2.1s-1 2.1-2.1 2.1H18.7l0 17.6v22.7l31.2 0c0 0 0 0 0.1 0 0 0 0 0 0.1 0l31.2 0 0-40.3-14.2 0c-1.2 0-2.1-1-2.1-2.1s1-2.1 2.1-2.1h14.3c2.3 0 4.2 1.9 4.2 4.2v40.3c0 2.3-1.9 4.2-4.2 4.2H52.1zM50.2 3.3c3.5 0.1 6.3 3 6.2 6.5-0.1 2.7-1.8 5-4.2 5.8v52.9c0 1.2-1 2.1-2.1 2.1-1.2 0-2.1-1-2.1-2.1V15.6c-0.9-0.3-1.8-0.9-2.5-1.6-1.2-1.2-1.8-2.8-1.8-4.5 0.1-3.4 2.9-6.2 6.4-6.2L50.2 3.3zM50.1 7.5L50.1 7.5c-1.2 0-2.1 0.9-2.2 2.1 0 0.6 0.2 1.1 0.6 1.5 0.4 0.4 0.9 0.6 1.5 0.7l0.1 0c1.1 0 2.1-0.9 2.1-2.1C52.1 8.5 51.2 7.6 50.1 7.5zM57.2 58.6V25.9c0-3.8 3.1-6.9 6.9-6.9h4.8c0.9-2.5 3.2-4.2 6-4.2 3.5 0 6.4 2.9 6.4 6.4s-2.9 6.4-6.4 6.4c-2.8 0-5.1-1.8-6-4.2h-4.8c-1.5 0-2.6 1.2-2.6 2.6v32.7c0 1.2-1 2.1-2.1 2.1C58.2 60.8 57.2 59.8 57.2 58.6zM72.8 21.2c0 1.2 0.9 2.1 2.1 2.1 1.2 0 2.1-0.9 2.1-2.1S76.1 19 74.9 19C73.7 19 72.8 20 72.8 21.2zM38.5 58.6V25.9c0-1.5-1.2-2.6-2.6-2.6h-4.8c-0.9 2.5-3.2 4.2-6 4.2-3.5 0-6.4-2.9-6.4-6.4s2.9-6.4 6.4-6.4c2.8 0 5.1 1.8 6 4.2h4.8c3.8 0 6.9 3.1 6.9 6.9v32.7c0 1.2-1 2.1-2.1 2.1S38.5 59.8 38.5 58.6zM27.2 21.2c0-1.2-0.9-2.1-2.1-2.1S23 20 23 21.2s0.9 2.1 2.1 2.1S27.2 22.3 27.2 21.2z" fill="black"></path></svg></g></svg></g></svg></g><defs><mask></mask></defs></svg><rect width="395.52" height="55.427501350696275" fill="black" stroke="none" visibility="hidden"></rect></g></mask><linearGradient x1="0" x2="1" y1="0.578" y2="0.595" id="88f3ddf6-488d-4b9b-bf34-f7f66915cc2a"><stop stop-color="#6ee2f5" offset="0"></stop><stop stop-color="#6454f0" offset="1"></stop></linearGradient><rect width="395.52" height="55.427501350696275" fill="url(#88f3ddf6-488d-4b9b-bf34-f7f66915cc2a)" mask="url(#981b07b0-7f70-4bba-945a-a53c8d11b2b7)" data-fill-palette-color="primary"></rect><mask id="b174dcc1-f8de-43c4-b4e8-c135cf7b0be6"><g id="SvgjsG1427"><svg viewBox="0 0 395.52 55.427501350696275" height="55.427501350696275" width="395.52"><g><svg viewBox="0 0 459.1581380187982 64.34564197820622" height="55.427501350696275" width="395.52"><g transform="matrix(1,0,0,1,0,1.1329551047778779)"><svg viewBox="0 0 395.52 62.07973176865046" height="62.07973176865046" width="395.52"><g id="SvgjsG1426"><svg viewBox="0 0 395.52 62.07973176865046" height="62.07973176865046" width="395.52" id="SvgjsSvg1425"><g><svg viewBox="0 0 395.52 62.07973176865046" height="62.07973176865046" width="395.52"><g transform="matrix(1,0,0,1,0,0)"><svg width="395.52" viewBox="1.7 -37 238.58 37.45" height="62.07973176865046" data-palette-color="url(#88f3ddf6-488d-4b9b-bf34-f7f66915cc2a)"></svg></g></svg></g></svg></g></svg></g><g transform="matrix(1,0,0,1,410.1755347570159,0)"><svg viewBox="0 0 48.98260326178225 64.34564197820622" height="64.34564197820622" width="48.98260326178225"><g><svg xmlns="http://www.w3.org/2000/svg" xmlns:xlink="http://www.w3.org/1999/xlink" version="1.1" x="0" y="0" viewBox="14.5 3.3 71.1 93.39999999999999" enable-background="new 0 0 100 100" xml:space="preserve" height="64.34564197820622" width="48.98260326178225" class="icon-icon-0" data-fill-palette-color="accent" id="SvgjsSvg1424"><path d="M52.1 84.4v8.1h12.2c1.2 0 2.1 1 2.1 2.1s-1 2.1-2.1 2.1H35.7c-1.2 0-2.1-1-2.1-2.1s1-2.1 2.1-2.1h12.2v-8.1H18.7c-2.3 0-4.2-1.9-4.2-4.2V39.9c0-2.3 1.9-4.2 4.2-4.2H33c1.2 0 2.1 1 2.1 2.1s-1 2.1-2.1 2.1H18.7l0 17.6v22.7l31.2 0c0 0 0 0 0.1 0 0 0 0 0 0.1 0l31.2 0 0-40.3-14.2 0c-1.2 0-2.1-1-2.1-2.1s1-2.1 2.1-2.1h14.3c2.3 0 4.2 1.9 4.2 4.2v40.3c0 2.3-1.9 4.2-4.2 4.2H52.1zM50.2 3.3c3.5 0.1 6.3 3 6.2 6.5-0.1 2.7-1.8 5-4.2 5.8v52.9c0 1.2-1 2.1-2.1 2.1-1.2 0-2.1-1-2.1-2.1V15.6c-0.9-0.3-1.8-0.9-2.5-1.6-1.2-1.2-1.8-2.8-1.8-4.5 0.1-3.4 2.9-6.2 6.4-6.2L50.2 3.3zM50.1 7.5L50.1 7.5c-1.2 0-2.1 0.9-2.2 2.1 0 0.6 0.2 1.1 0.6 1.5 0.4 0.4 0.9 0.6 1.5 0.7l0.1 0c1.1 0 2.1-0.9 2.1-2.1C52.1 8.5 51.2 7.6 50.1 7.5zM57.2 58.6V25.9c0-3.8 3.1-6.9 6.9-6.9h4.8c0.9-2.5 3.2-4.2 6-4.2 3.5 0 6.4 2.9 6.4 6.4s-2.9 6.4-6.4 6.4c-2.8 0-5.1-1.8-6-4.2h-4.8c-1.5 0-2.6 1.2-2.6 2.6v32.7c0 1.2-1 2.1-2.1 2.1C58.2 60.8 57.2 59.8 57.2 58.6zM72.8 21.2c0 1.2 0.9 2.1 2.1 2.1 1.2 0 2.1-0.9 2.1-2.1S76.1 19 74.9 19C73.7 19 72.8 20 72.8 21.2zM38.5 58.6V25.9c0-1.5-1.2-2.6-2.6-2.6h-4.8c-0.9 2.5-3.2 4.2-6 4.2-3.5 0-6.4-2.9-6.4-6.4s2.9-6.4 6.4-6.4c2.8 0 5.1 1.8 6 4.2h4.8c3.8 0 6.9 3.1 6.9 6.9v32.7c0 1.2-1 2.1-2.1 2.1S38.5 59.8 38.5 58.6zM27.2 21.2c0-1.2-0.9-2.1-2.1-2.1S23 20 23 21.2s0.9 2.1 2.1 2.1S27.2 22.3 27.2 21.2z" fill="white"></path></svg></g></svg></g></svg></g><defs><mask></mask></defs><mask><g id="SvgjsG1423"><svg viewBox="0 0 395.52 55.427501350696275" height="55.427501350696275" width="395.52"><g><svg viewBox="0 0 459.1581380187982 64.34564197820622" height="55.427501350696275" width="395.52"><g transform="matrix(1,0,0,1,0,1.1329551047778779)"><svg viewBox="0 0 395.52 62.07973176865046" height="62.07973176865046" width="395.52"><g id="SvgjsG1422"><svg viewBox="0 0 395.52 62.07973176865046" height="62.07973176865046" width="395.52" id="SvgjsSvg1421"><g><svg viewBox="0 0 395.52 62.07973176865046" height="62.07973176865046" width="395.52"><g transform="matrix(1,0,0,1,0,0)"><svg width="395.52" viewBox="1.7 -37 238.58 37.45" height="62.07973176865046" data-palette-color="url(#88f3ddf6-488d-4b9b-bf34-f7f66915cc2a)"><path d="M1.7-34.85L25.3-34.85 25.3-31.15 15.8-31.15 15.8 0 11.25 0 11.25-31.15 1.7-31.15 1.7-34.85ZM55.9-14.75Q55.9-13.45 55.75-12L55.75-12 33.85-12Q34.1-7.95 36.62-5.68 39.15-3.4 42.75-3.4L42.75-3.4Q45.7-3.4 47.67-4.78 49.65-6.15 50.45-8.45L50.45-8.45 55.35-8.45Q54.25-4.5 50.95-2.02 47.65 0.45 42.75 0.45L42.75 0.45Q38.85 0.45 35.77-1.3 32.7-3.05 30.95-6.28 29.2-9.5 29.2-13.75L29.2-13.75Q29.2-18 30.9-21.2 32.6-24.4 35.67-26.13 38.75-27.85 42.75-27.85L42.75-27.85Q46.65-27.85 49.65-26.15 52.65-24.45 54.27-21.48 55.9-18.5 55.9-14.75L55.9-14.75ZM51.2-15.7Q51.2-18.3 50.05-20.18 48.9-22.05 46.92-23.03 44.95-24 42.55-24L42.55-24Q39.1-24 36.67-21.8 34.25-19.6 33.9-15.7L33.9-15.7 51.2-15.7ZM60.2-13.75Q60.2-18 61.9-21.18 63.59-24.35 66.62-26.1 69.65-27.85 73.55-27.85L73.55-27.85Q78.59-27.85 81.87-25.4 85.15-22.95 86.2-18.6L86.2-18.6 81.3-18.6Q80.59-21.1 78.57-22.55 76.55-24 73.55-24L73.55-24Q69.65-24 67.25-21.33 64.84-18.65 64.84-13.75L64.84-13.75Q64.84-8.8 67.25-6.1 69.65-3.4 73.55-3.4L73.55-3.4Q76.55-3.4 78.55-4.8 80.55-6.2 81.3-8.8L81.3-8.8 86.2-8.8Q85.09-4.6 81.8-2.08 78.5 0.45 73.55 0.45L73.55 0.45Q69.65 0.45 66.62-1.3 63.59-3.05 61.9-6.25 60.2-9.45 60.2-13.75L60.2-13.75ZM105.84-27.9Q108.94-27.9 111.44-26.58 113.94-25.25 115.37-22.6 116.79-19.95 116.79-16.15L116.79-16.15 116.79 0 112.29 0 112.29-15.5Q112.29-19.6 110.24-21.78 108.19-23.95 104.64-23.95L104.64-23.95Q101.04-23.95 98.92-21.7 96.79-19.45 96.79-15.15L96.79-15.15 96.79 0 92.24 0 92.24-37 96.79-37 96.79-23.5Q98.14-25.6 100.52-26.75 102.89-27.9 105.84-27.9L105.84-27.9ZM122.09-34.85L145.69-34.85 145.69-31.15 136.19-31.15 136.19 0 131.64 0 131.64-31.15 122.09-31.15 122.09-34.85ZM171.04-27.4L175.59-27.4 175.59 0 171.04 0 171.04-4.05Q169.74-1.95 167.41-0.78 165.09 0.4 162.29 0.4L162.29 0.4Q159.09 0.4 156.54-0.93 153.99-2.25 152.51-4.9 151.04-7.55 151.04-11.35L151.04-11.35 151.04-27.4 155.54-27.4 155.54-11.95Q155.54-7.9 157.59-5.73 159.64-3.55 163.19-3.55L163.19-3.55Q166.84-3.55 168.94-5.8 171.04-8.05 171.04-12.35L171.04-12.35 171.04-27.4ZM196.64-27.9Q201.64-27.9 204.74-24.88 207.84-21.85 207.84-16.15L207.84-16.15 207.84 0 203.34 0 203.34-15.5Q203.34-19.6 201.29-21.78 199.24-23.95 195.69-23.95L195.69-23.95Q192.09-23.95 189.96-21.7 187.84-19.45 187.84-15.15L187.84-15.15 187.84 0 183.29 0 183.29-27.4 187.84-27.4 187.84-23.5Q189.19-25.6 191.51-26.75 193.84-27.9 196.64-27.9L196.64-27.9ZM240.28-14.75Q240.28-13.45 240.13-12L240.13-12 218.23-12Q218.48-7.95 221.01-5.68 223.53-3.4 227.13-3.4L227.13-3.4Q230.08-3.4 232.06-4.78 234.03-6.15 234.83-8.45L234.83-8.45 239.73-8.45Q238.63-4.5 235.33-2.02 232.03 0.45 227.13 0.45L227.13 0.45Q223.23 0.45 220.16-1.3 217.08-3.05 215.33-6.28 213.58-9.5 213.58-13.75L213.58-13.75Q213.58-18 215.28-21.2 216.98-24.4 220.06-26.13 223.13-27.85 227.13-27.85L227.13-27.85Q231.03-27.85 234.03-26.15 237.03-24.45 238.66-21.48 240.28-18.5 240.28-14.75L240.28-14.75ZM235.58-15.7Q235.58-18.3 234.43-20.18 233.28-22.05 231.31-23.03 229.33-24 226.93-24L226.93-24Q223.48-24 221.06-21.8 218.63-19.6 218.28-15.7L218.28-15.7 235.58-15.7Z" opacity="1" transform="matrix(1,0,0,1,0,0)" fill="black" class="wordmark-text-0" id="SvgjsPath1420"></path></svg></g></svg></g></svg></g></svg></g><g transform="matrix(1,0,0,1,410.1755347570159,0)"><svg viewBox="0 0 48.98260326178225 64.34564197820622" height="64.34564197820622" width="48.98260326178225"><g><svg xmlns="http://www.w3.org/2000/svg" xmlns:xlink="http://www.w3.org/1999/xlink" version="1.1" x="0" y="0" viewBox="14.5 3.3 71.1 93.39999999999999" enable-background="new 0 0 100 100" xml:space="preserve" height="64.34564197820622" width="48.98260326178225" class="icon-icon-0" data-fill-palette-color="accent" id="SvgjsSvg1419"><path d="M52.1 84.4v8.1h12.2c1.2 0 2.1 1 2.1 2.1s-1 2.1-2.1 2.1H35.7c-1.2 0-2.1-1-2.1-2.1s1-2.1 2.1-2.1h12.2v-8.1H18.7c-2.3 0-4.2-1.9-4.2-4.2V39.9c0-2.3 1.9-4.2 4.2-4.2H33c1.2 0 2.1 1 2.1 2.1s-1 2.1-2.1 2.1H18.7l0 17.6v22.7l31.2 0c0 0 0 0 0.1 0 0 0 0 0 0.1 0l31.2 0 0-40.3-14.2 0c-1.2 0-2.1-1-2.1-2.1s1-2.1 2.1-2.1h14.3c2.3 0 4.2 1.9 4.2 4.2v40.3c0 2.3-1.9 4.2-4.2 4.2H52.1zM50.2 3.3c3.5 0.1 6.3 3 6.2 6.5-0.1 2.7-1.8 5-4.2 5.8v52.9c0 1.2-1 2.1-2.1 2.1-1.2 0-2.1-1-2.1-2.1V15.6c-0.9-0.3-1.8-0.9-2.5-1.6-1.2-1.2-1.8-2.8-1.8-4.5 0.1-3.4 2.9-6.2 6.4-6.2L50.2 3.3zM50.1 7.5L50.1 7.5c-1.2 0-2.1 0.9-2.2 2.1 0 0.6 0.2 1.1 0.6 1.5 0.4 0.4 0.9 0.6 1.5 0.7l0.1 0c1.1 0 2.1-0.9 2.1-2.1C52.1 8.5 51.2 7.6 50.1 7.5zM57.2 58.6V25.9c0-3.8 3.1-6.9 6.9-6.9h4.8c0.9-2.5 3.2-4.2 6-4.2 3.5 0 6.4 2.9 6.4 6.4s-2.9 6.4-6.4 6.4c-2.8 0-5.1-1.8-6-4.2h-4.8c-1.5 0-2.6 1.2-2.6 2.6v32.7c0 1.2-1 2.1-2.1 2.1C58.2 60.8 57.2 59.8 57.2 58.6zM72.8 21.2c0 1.2 0.9 2.1 2.1 2.1 1.2 0 2.1-0.9 2.1-2.1S76.1 19 74.9 19C73.7 19 72.8 20 72.8 21.2zM38.5 58.6V25.9c0-1.5-1.2-2.6-2.6-2.6h-4.8c-0.9 2.5-3.2 4.2-6 4.2-3.5 0-6.4-2.9-6.4-6.4s2.9-6.4 6.4-6.4c2.8 0 5.1 1.8 6 4.2h4.8c3.8 0 6.9 3.1 6.9 6.9v32.7c0 1.2-1 2.1-2.1 2.1S38.5 59.8 38.5 58.6zM27.2 21.2c0-1.2-0.9-2.1-2.1-2.1S23 20 23 21.2s0.9 2.1 2.1 2.1S27.2 22.3 27.2 21.2z" fill="black"></path></svg></g></svg></g></svg></g><defs><mask></mask></defs></svg><rect width="395.52" height="55.427501350696275" fill="black" stroke="none" visibility="hidden"></rect></g></mask></svg><rect width="395.52" height="55.427501350696275" fill="black" stroke="none" visibility="hidden"></rect></g></mask><linearGradient x1="0" x2="1" y1="0.578" y2="0.595" id="bba06e81-b6ee-485b-9ff6-3da502b80336"><stop stop-color="#6ee2f5" offset="0"></stop><stop stop-color="#6454f0" offset="1"></stop></linearGradient><rect width="395.52" height="55.427501350696275" fill="url(#bba06e81-b6ee-485b-9ff6-3da502b80336)" mask="url(#b174dcc1-f8de-43c4-b4e8-c135cf7b0be6)" data-fill-palette-color="accent"></rect></svg><rect width="395.52" height="55.427501350696275" fill="none" stroke="none" visibility="hidden"></rect></g></svg></g></svg>